<svg xmlns="http://www.w3.org/2000/svg" viewBox="0 0 180 180">
<g fill="none" stroke="#F3AFB3" stroke-width="5" stroke-linecap="round">
<path d="M90 62c-7-28 18-42 30-25 10 14-4 30-20 37 25-11 43 10 30 25-13 15-31 1-39-14 8 26-15 42-31 28-15-14 1-32 17-39-26 9-42-14-27-30 14-15 32 2 40 18Z"/>
<circle cx="90" cy="76" r="9"/>
</g>
<path d="M93 86c6 22 2 43-8 62" fill="none" stroke="#7FBBC0" stroke-width="5" stroke-linecap="round"/>
<path d="M88 120c-18-3-28 5-33 16M91 108c17-8 30-4 38 5" fill="none" stroke="#7FBBC0" stroke-width="5" stroke-linecap="round"/>
</svg>